<?xml version="1.0" standalone="no"?>
<!DOCTYPE svg PUBLIC "-//W3C//DTD SVG 20010904//EN"
 "http://www.w3.org/TR/2001/REC-SVG-20010904/DTD/svg10.dtd">
<svg version="1.0" xmlns="http://www.w3.org/2000/svg"
 width="700.000000pt" height="700.000000pt" viewBox="0 0 700.000000 700.000000"
 preserveAspectRatio="xMidYMid meet">
<metadata>
Created by potrace 1.14, written by Peter Selinger 2001-2017
</metadata>
<g transform="translate(0.000000,700.000000) scale(0.100000,-0.100000)"
fill="#000000" stroke="none">
<path d="M3473 6428 c-56 -15 -63 -42 -63 -252 0 -179 -1 -185 -21 -191 -33
-11 -98 -74 -122 -119 -18 -35 -22 -62 -25 -177 l-4 -135 -44 -28 c-130 -82
-221 -244 -239 -426 -4 -36 -16 -85 -26 -109 -10 -24 -19 -54 -19 -67 0 -29
43 -80 75 -88 l25 -6 0 -319 0 -318 -42 -12 c-113 -34 -207 -107 -301 -236
-24 -33 -54 -65 -68 -71 -13 -7 -62 -16 -109 -22 -185 -21 -314 -109 -375
-256 -17 -43 -25 -51 -49 -53 -15 -1 -38 -8 -50 -16 -12 -9 -72 -121 -148
-278 l-128 -264 0 -781 0 -781 -106 -12 c-208 -24 -352 -89 -479 -216 -62 -62
-112 -129 -217 -294 -81 -125 -138 -223 -138 -238 0 -65 61 -114 123 -97 28 8
53 40 188 244 139 209 164 241 222 285 71 55 169 97 262 114 84 16 3726 16
3810 0 115 -21 254 -88 311 -150 10 -11 89 -125 174 -252 134 -201 159 -233
187 -241 62 -17 123 32 123 97 0 15 -61 118 -151 256 -178 273 -236 334 -383
406 -106 52 -174 71 -308 87 l-98 11 0 780 0 781 -125 260 c-69 144 -135 269
-146 278 -11 10 -35 20 -53 24 -28 5 -35 12 -45 44 -13 44 -71 125 -117 163
-71 60 -208 106 -311 107 -51 0 -81 23 -156 125 -79 105 -156 158 -304 210
-10 3 -13 76 -13 317 l0 314 43 19 c54 26 73 72 50 125 -19 44 -29 85 -42 185
-20 141 -102 280 -213 358 l-58 41 0 85 c0 179 -33 267 -122 325 l-46 31 -4
192 c-3 184 -4 192 -26 216 -28 30 -55 36 -99 25z m81 -640 c11 -15 16 -46 16
-95 l0 -73 -70 0 -70 0 0 59 c0 62 13 110 33 123 25 16 76 8 91 -14z m103
-399 c114 -55 182 -157 197 -296 l7 -63 -356 0 -355 0 0 43 c0 103 62 227 143
284 38 27 100 54 152 67 48 12 151 -5 212 -35z m143 -874 l0 -315 -295 0 -295
0 0 315 0 315 295 0 295 0 0 -315z m0 -965 l0 -460 -295 0 -295 0 0 460 0 460
295 0 295 0 0 -460z m-792 -365 l-3 -805 -84 -39 c-100 -47 -155 -85 -227
-159 -98 -101 -131 -206 -79 -257 17 -18 35 -25 63 -25 44 0 65 13 87 55 14
28 15 8 15 -252 l0 -283 -185 0 -185 0 0 777 0 777 -60 128 -60 128 0 140 c0
153 5 174 57 221 47 44 91 60 189 70 143 13 201 50 309 195 45 61 131 134 157
134 4 0 7 -362 6 -805z m1030 786 c39 -20 85 -67 163 -167 76 -98 165 -144
280 -144 87 0 183 -49 214 -110 11 -22 15 -65 15 -176 l0 -147 -60 -126 -60
-127 0 -777 0 -777 -185 0 -185 0 0 281 c0 184 3 278 10 274 6 -3 10 -12 10
-20 0 -23 50 -55 87 -55 25 0 43 8 64 29 36 37 37 70 4 138 -54 108 -175 214
-320 279 l-85 38 0 803 c0 442 2 803 5 803 3 0 23 -9 43 -19z m-1888 -903 c0
-5 -34 -8 -75 -8 -41 0 -75 2 -75 4 0 2 16 39 36 82 l36 79 39 -75 c21 -41 38
-78 39 -82z m2815 76 c19 -42 35 -78 35 -80 0 -2 -34 -4 -75 -4 -41 0 -75 2
-75 5 0 7 74 155 77 155 2 0 19 -34 38 -76z m-1165 -483 l0 -228 -47 10 c-62
13 -434 13 -495 0 l-48 -10 0 228 0 229 295 0 295 0 0 -229z m-1590 -521 l0
-720 -135 0 -135 0 0 720 0 720 135 0 135 0 0 -720z m2850 0 l0 -720 -135 0
-135 0 0 720 0 720 135 0 135 0 0 -720z m-1335 115 c89 -16 228 -56 278 -82
l27 -14 0 -369 0 -370 -115 0 -115 0 0 260 0 261 -26 24 -27 25 -243 0 c-242
0 -243 0 -271 -24 l-28 -24 -3 -261 -3 -261 -109 0 -110 0 0 370 0 370 38 18
c52 27 173 62 262 77 107 18 339 18 445 0z m-105 -645 l0 -190 -115 0 -115 0
0 190 0 190 115 0 115 0 0 -190z"/>
<path d="M3439 4711 l-29 -29 0 -157 c0 -192 13 -224 88 -225 84 0 102 38 102
213 0 151 -10 191 -51 212 -43 23 -77 18 -110 -14z"/>
<path d="M3464 3720 c-48 -19 -54 -44 -54 -208 0 -170 9 -203 58 -220 39 -13
76 -5 104 25 22 24 23 31 23 190 l0 165 -33 29 c-33 29 -60 35 -98 19z"/>
<path d="M2684 3420 c-43 -17 -54 -48 -54 -153 0 -91 2 -100 25 -122 18 -19
35 -25 65 -25 30 0 47 6 65 25 23 22 25 31 25 129 0 104 0 104 -31 130 -31 27
-58 31 -95 16z"/>
<path d="M4241 3416 c-39 -22 -50 -54 -51 -148 0 -79 2 -89 26 -117 21 -26 33
-31 69 -31 36 0 48 5 69 31 23 28 26 39 26 114 0 95 -12 130 -51 151 -34 17
-57 17 -88 0z"/>
<path d="M4745 5963 c-150 -31 -323 -137 -427 -261 -42 -50 -55 -58 -101 -67
-59 -13 -104 -34 -130 -63 -16 -17 -16 -21 -2 -32 8 -7 32 -40 52 -74 20 -33
37 -62 39 -64 1 -2 14 8 28 21 36 33 73 39 115 19 55 -27 76 -63 73 -128 -2
-49 1 -58 27 -85 38 -37 88 -39 128 -5 27 23 28 28 28 113 0 100 -19 149 -82
214 l-34 36 57 51 c113 101 245 152 394 152 160 0 297 -57 411 -170 121 -121
177 -279 165 -462 l-7 -99 30 -29 c20 -21 39 -30 61 -30 69 0 95 38 106 156
l7 79 18 -40 c40 -90 32 -213 -19 -308 -35 -66 -119 -140 -190 -169 l-57 -23
-622 0 -623 0 0 -92 0 -93 628 0 c516 0 637 3 682 15 189 50 340 199 395 390
25 84 23 221 -4 305 -41 129 -123 237 -238 312 -42 27 -71 56 -89 86 -39 66
-167 196 -238 240 -171 108 -386 147 -581 105z"/>
<path d="M2926 934 c-19 -19 -26 -37 -26 -64 0 -27 7 -45 26 -64 l27 -26 548
0 548 0 28 24 c39 34 39 98 0 132 l-28 24 -548 0 -548 0 -27 -26z"/>
<path d="M1934 760 c-32 -13 -54 -50 -54 -90 1 -39 14 -61 47 -78 28 -16 565
-17 594 -2 22 12 49 61 49 89 0 12 -13 35 -29 53 l-29 33 -279 2 c-153 1 -288
-2 -299 -7z"/>
<path d="M4488 754 c-57 -30 -65 -98 -19 -145 l29 -29 287 0 287 0 29 29 c32
33 37 67 14 110 -23 46 -55 51 -339 51 -211 -1 -266 -4 -288 -16z"/>
</g>
</svg>
